<svg width="256" height="256" viewBox="0 0 256 256" fill="none" xmlns="http://www.w3.org/2000/svg">
<path d="M147.075 42.729L142.455 27.8581C140.71 22.1549 135.092 18.3943 129.046 19.0298L38.5973 28.5363C31.6688 29.2645 26.5986 35.5561 27.3303 42.5176L47.2853 232.376C48.017 239.338 54.2844 244.438 61.2129 243.709C68.1414 242.981 73.2115 236.69 72.4798 229.728L64.4979 153.785L135.043 146.37L139.662 161.241C141.421 167.071 147.025 170.705 153.072 170.069L218.326 163.211C225.254 162.483 230.324 156.191 229.593 149.23L218.95 47.9717C218.218 41.0102 211.951 35.9102 205.023 36.6385L147.075 42.729Z" fill="url(#paint0_linear_1348_3)"/>
<defs>
<linearGradient id="paint0_linear_1348_3" x1="120.48" y1="19.9301" x2="143.095" y2="235.103" gradientUnits="userSpaceOnUse">
<stop stop-color="#FFA600"/>
<stop offset="1" stop-color="#FFA600" stop-opacity="0.7"/>
</linearGradient>
</defs>
</svg>
